<mxfile host="app.diagrams.net" agent="Mozilla/5.0 (Windows NT 10.0; Win64; x64) AppleWebKit/537.36 (KHTML, like Gecko) Chrome/135.0.0.0 Safari/537.36" version="26.2.9">
  <diagram name="Page-1" id="jNxPUxaBNtRELnaQ6DSP">
    <mxGraphModel dx="874" dy="483" grid="1" gridSize="10" guides="1" tooltips="1" connect="1" arrows="1" fold="1" page="1" pageScale="1" pageWidth="850" pageHeight="1100" math="0" shadow="0">
      <root>
        <mxCell id="0" />
        <mxCell id="1" parent="0" />
        <mxCell id="yeO_3CGvvgYVRdCetNla-3" value="" style="edgeStyle=orthogonalEdgeStyle;rounded=0;orthogonalLoop=1;jettySize=auto;html=1;" edge="1" parent="1" source="yeO_3CGvvgYVRdCetNla-1" target="yeO_3CGvvgYVRdCetNla-2">
          <mxGeometry relative="1" as="geometry" />
        </mxCell>
        <mxCell id="yeO_3CGvvgYVRdCetNla-1" value="Application Flow" style="rounded=0;whiteSpace=wrap;html=1;" vertex="1" parent="1">
          <mxGeometry x="360" y="40" width="120" height="60" as="geometry" />
        </mxCell>
        <mxCell id="yeO_3CGvvgYVRdCetNla-5" value="" style="edgeStyle=orthogonalEdgeStyle;rounded=0;orthogonalLoop=1;jettySize=auto;html=1;" edge="1" parent="1" source="yeO_3CGvvgYVRdCetNla-2" target="yeO_3CGvvgYVRdCetNla-4">
          <mxGeometry relative="1" as="geometry" />
        </mxCell>
        <mxCell id="yeO_3CGvvgYVRdCetNla-2" value="Source Code" style="rounded=0;whiteSpace=wrap;html=1;" vertex="1" parent="1">
          <mxGeometry x="40" y="160" width="120" height="60" as="geometry" />
        </mxCell>
        <mxCell id="yeO_3CGvvgYVRdCetNla-4" value="Commit" style="rounded=0;whiteSpace=wrap;html=1;" vertex="1" parent="1">
          <mxGeometry x="240" y="160" width="120" height="60" as="geometry" />
        </mxCell>
      </root>
    </mxGraphModel>
  </diagram>
</mxfile>
